<?xml version="1.0" standalone="no"?><svg xmlns="http://www.w3.org/2000/svg" viewBox="0 0 1440 320"><path fill="#fff" fill-opacity="1" d="M0,128L26.7,160C53.3,192,107,256,160,256C213.3,256,267,192,320,160C373.3,128,427,128,480,149.3C533.3,171,587,213,640,229.3C693.3,245,747,235,800,208C853.3,181,907,139,960,154.7C1013.3,171,1067,245,1120,256C1173.3,267,1227,213,1280,202.7C1333.3,192,1387,224,1413,240L1440,256L1440,320L1413.3,320C1386.7,320,1333,320,1280,320C1226.7,320,1173,320,1120,320C1066.7,320,1013,320,960,320C906.7,320,853,320,800,320C746.7,320,693,320,640,320C586.7,320,533,320,480,320C426.7,320,373,320,320,320C266.7,320,213,320,160,320C106.7,320,53,320,27,320L0,320Z"></path></svg>